<svg width="20" height="20" viewBox="0 0 48 48" fill="none" xmlns="http://www.w3.org/2000/svg">
  <path d="M44.5 20H24V28.5H35.8C34.2 33.6 29.5 37 24 37C17.1 37 11.5 31.4 11.5 24.5C11.5 17.6 17.1 12 24 12C27.1 12 29.9 13.1 32.1 15L38.1 9C34.4 5.7 29.5 3.5 24 3.5C12.7 3.5 3.5 12.7 3.5 24C3.5 35.3 12.7 44.5 24 44.5C34.8 44.5 44 36.8 44 24.5C44 23 43.8 21.5 44.5 20Z" fill="#FFC107"/>
  <path d="M6.6 14.3L13.6 19.4C15.5 14.8 19.4 12 24 12C27.1 12 29.9 13.1 32.1 15L38.1 9C34.4 5.7 29.5 3.5 24 3.5C16.1 3.5 9.2 8 6.6 14.3Z" fill="#FF3D00"/>
  <path d="M24 44.5C29.3 44.5 34.1 42.4 37.8 39.2L31.2 33.6C29.1 35.2 26.7 36.1 24 36.1C18.7 36.1 14.2 32.8 12.6 28L5.8 33.2C8.3 39.8 15.6 44.5 24 44.5Z" fill="#4CAF50"/>
  <path d="M44.5 20H24V28.5H35.8C35.1 30.8 33.7 32.6 31.2 33.6L37.8 39.2C41.6 35.7 44.5 30.5 44.5 24.5C44.5 23 44.4 21.5 44.5 20Z" fill="#1976D2"/>
</svg>
